# xmcd
#
# Track frame offsets:
# 150
# 19317
# 27672
# 44791
# 65371
# 83598
# 105512
# 128314
# 135819
# 157233
# 178923
# 202132
# 221827
# 241176
# 262821
# 272675
# 287585
# 308017
# 333696
#
# Disc length: 4547 seconds
#
#
# Revision: 1
# Processed by: cddbd v1.5.2PL0 Copyright (c) Steve Scherf et al.
# Submitted via: FreeRIP 2.945 
#
DISCID=1611c113
DTITLE=Nelly - Nellyville
DYEAR=2002
DGENRE=Rap
TTITLE0=Nellyville
TTITLE1=Gettin It Started (feat. Cedric The Entertainer)
TTITLE2=Hot In Herre
TTITLE3=Dem Boyz
TTITLE4=Oh Nelly
TTITLE5=Pimp Juice
TTITLE6=Air Force Ones
TTITLE7=In The Store (feat. Cedric The Entertainer)
TTITLE8=On The Grind (feat. King Jacob)
TTITLE9=Dilemma (feat. Kelly Rowland)
TTITLE10=Splurge
TTITLE11=Work It (feat. Justin Timberlake)
TTITLE12=Roc The Mic (Remix)
TTITLE13=The Gank
TTITLE14=5000
TTITLE15=Number One
TTITLE16=CG 2
TTITLE17=Say Now
TTITLE18=Fuck It Then (feat. Cedric The Entertainer)
EXTD=
EXTT0=
EXTT1=
EXTT2=
EXTT3=
EXTT4=
EXTT5=
EXTT6=
EXTT7=
EXTT8=
EXTT9=
EXTT10=
EXTT11=
EXTT12=
EXTT13=
EXTT14=
EXTT15=
EXTT16=
EXTT17=
EXTT18=
PLAYORDER=
